<svg width="50" height="50" viewBox="0 0 50 50" fill="none" xmlns="http://www.w3.org/2000/svg">
<path d="M47.5781 1.5625C48.9844 12.0312 48.75 20.4687 46.6406 25.8594L27.2656 11.4844C31.0938 7.5 38.9062 2.73438 47.5781 1.5625Z" fill="#DADEE0"/>
<path d="M45.0781 25.1562L37.1094 14.7656C37.1094 14.7656 38.5937 9.0625 46.1719 5.07812C48.4375 14.1406 45.0781 25.1562 45.0781 25.1562Z" fill="#F7A4A4"/>
<path d="M42.0312 22.8125L37.1094 16.4062C37.1094 16.4062 39.1406 12.5 43.8281 10C41.0937 15.8594 42.0312 22.8125 42.0312 22.8125Z" fill="#F78D8D"/>
<path d="M2.42189 1.5625C1.01564 12.0312 1.25001 20.4687 3.35939 25.8594L22.7344 11.4062C18.9063 7.5 11.0938 2.73438 2.42189 1.5625Z" fill="#DADEE0"/>
<path d="M4.9219 25.1562L12.9688 14.7656C12.9688 14.7656 11.4844 9.0625 3.90627 5.07812C1.56252 14.1406 4.9219 25.1562 4.9219 25.1562Z" fill="#F7A4A4"/>
<path d="M7.96875 22.8125L12.9688 16.4062C12.9688 16.4062 10.9375 12.5 6.25 10C8.90625 15.8594 7.96875 22.8125 7.96875 22.8125Z" fill="#F78D8D"/>
<path d="M45.4688 39.6875C46.0938 38.9844 46.5625 38.4375 46.7969 37.9687C48.0469 35.9375 48.4375 33.8281 48.4375 33.8281L46.875 34.1406C46.875 34.1406 48.6719 32.1875 48.2031 28.0469L46.6406 29.6875C46.6406 29.6875 48.125 25.4688 46.875 21.5625L45.1562 22.8125C45.1562 22.8125 45.7031 21.25 45.2344 20.1562L44.5312 20.7031C44.5312 20.7031 45.8594 17.0312 44.6875 15.5469C43.9844 17.7344 43.2031 17.7344 43.2031 17.7344C43.2031 17.7344 44.1406 16.0938 43.4375 15.3906C42.6562 16.6406 42.0312 15.8594 42.0312 15.4687C42.1094 15 41.875 14.2969 44.1406 13.9062C42.3438 12.8125 40.1562 13.5937 40.1562 13.5937C40.1562 13.5937 40.2344 12.4219 41.7969 12.5C40.3125 11.25 38.2812 12.0312 38.2812 12.0312C35.0781 9.60937 30.7812 8.20312 24.9219 8.20312C19.1406 8.20312 14.8438 9.60937 11.5625 12.0312C11.5625 12.0312 9.53125 11.3281 8.04688 12.5C9.60938 12.4219 9.6875 13.5937 9.6875 13.5937C9.6875 13.5937 7.57812 12.8125 5.70312 13.9062C7.96875 14.2187 7.8125 14.9219 7.8125 15.4687C7.8125 15.8594 7.1875 16.6406 6.40625 15.3906C5.625 16.0938 6.64062 17.7344 6.64062 17.7344C6.64062 17.7344 5.85938 17.7344 5.15625 15.5469C3.98438 17.1094 5.3125 20.7031 5.3125 20.7031L4.60938 20.1562C4.14062 21.25 4.6875 22.8125 4.6875 22.8125L3.125 21.5625C1.79687 25.4688 3.35938 29.6875 3.35938 29.6875L1.875 28.0469C1.32813 32.1875 3.125 34.1406 3.125 34.1406L1.5625 33.8281C1.5625 33.8281 1.95312 35.9375 3.20312 37.9687C3.35937 38.3594 3.82813 38.9844 4.53125 39.6875L4.60938 39.7656C7.8125 42.9688 15.7031 48.4375 25 48.4375C34.2969 48.4375 42.1875 42.9688 45.3906 39.7656C45.3906 39.6875 45.4688 39.6875 45.4688 39.6875Z" fill="#DADEE0"/>
<path d="M29.4531 8.4375C28.0469 8.20313 26.5625 8.125 25 8.125C23.4375 8.125 21.9531 8.20313 20.5469 8.4375C21.0938 11.4844 22.7344 13.5938 25 17.5C27.3438 13.5156 28.9063 11.4063 29.4531 8.4375Z" fill="#94989B"/>
<path d="M36.5625 10.7812C35.0781 9.92188 33.3594 9.29688 31.4844 8.82812C31.9531 10.625 32.9688 11.875 34.2969 14.2188C35.3125 12.5781 36.0156 12.1094 36.5625 10.7812Z" fill="#94989B"/>
<path d="M18.5156 8.82812C16.5625 9.29688 14.9219 9.92188 13.4375 10.7812C13.9844 12.1875 14.7656 12.5781 15.7031 14.2188C17.1094 11.7969 18.0469 10.5469 18.5156 8.82812Z" fill="#94989B"/>
<path d="M28.125 29.6875C27.5 28.9844 25.5469 28.9062 25 28.9062C24.4531 28.9062 22.5 28.9844 21.875 29.6875C21.4063 30.2344 21.7969 31.4844 22.9688 32.6562C23.75 33.3594 24.4531 33.5938 25 33.5938C25.5469 33.5938 26.3281 33.3594 27.0313 32.6562C28.2813 31.5625 28.5938 30.2344 28.125 29.6875Z" fill="#4C5359"/>
<path d="M18.9844 24.0625C18.9844 24.0625 18.5938 20.4688 15.4688 19.375C11.9531 18.0469 9.53127 21.25 8.82814 23.0469C7.89064 25.7032 9.06252 28.5938 9.45314 29.2969C9.68752 29.7657 12.3438 31.7969 18.2031 29.8438C18.2031 29.8438 19.6875 26.875 18.9844 24.0625Z" fill="white"/>
<path d="M18.9844 24.0625C18.6719 22.8125 18.125 21.7187 17.1875 20.8593C16.7969 20.4687 16.25 20.0781 15.7031 19.9218C15.4688 19.8437 15.1563 19.6875 14.8438 19.6875C14.6875 19.6093 14.375 19.5312 14.0625 19.5312C12.8906 19.5312 11.875 20 11.0156 20.7812C10.1563 21.5625 9.53127 22.5781 9.21877 23.6718C8.90627 24.7656 8.9844 26.0156 9.21877 27.1093C9.37502 27.6562 9.53127 28.2812 9.76565 28.8281L9.84377 28.9843C9.84377 28.9062 9.84377 28.9843 9.84377 28.9843L9.9219 29.0625C10 29.1406 10.0781 29.2187 10.2344 29.2968C10.4688 29.4531 10.7031 29.6093 10.9375 29.6875C12.0313 30.1562 13.2031 30.3125 14.4531 30.3125C15.7031 30.3125 16.9531 30.0781 18.2031 29.7656C17.0313 30.3125 15.7813 30.625 14.5313 30.8593C13.2813 31.0156 11.875 31.0156 10.625 30.5468C10.3125 30.4687 10 30.3125 9.68752 30.0781C9.53127 30 9.37502 29.8437 9.21877 29.7656C9.14065 29.7656 9.14065 29.6875 9.06252 29.6093L8.9844 29.5312L8.90627 29.4531L8.75002 29.2187C8.43752 28.5937 8.20315 27.9687 8.0469 27.3437C7.7344 26.0937 7.65627 24.6875 7.96877 23.3593C8.3594 22.0312 9.14065 20.8593 10.1563 19.9218C11.1719 19.0625 12.5781 18.4375 13.9844 18.5937C14.2969 18.6718 14.6875 18.6718 15 18.8281C15.3125 18.9062 15.625 19.0625 15.9375 19.2187C16.5625 19.5312 17.0313 20 17.5 20.4687C18.4375 21.5625 18.9063 22.8125 18.9844 24.0625Z" fill="#B2B6B8"/>
<path d="M31.0156 24.0625C31.0156 24.0625 31.4062 20.4688 34.5312 19.375C38.0469 18.0469 40.4687 21.25 41.1719 23.0469C42.1094 25.7032 40.9375 28.5938 40.5469 29.2969C40.3125 29.7657 37.6562 31.7969 31.7969 29.8438C31.7969 29.8438 30.3125 26.875 31.0156 24.0625Z" fill="white"/>
<path d="M31.0156 24.0625C31.0938 22.8125 31.5625 21.5625 32.3438 20.4687C32.7344 19.9218 33.2813 19.5312 33.9063 19.2187C34.2188 19.0625 34.5312 18.9062 34.8437 18.8281C35.1562 18.75 35.5469 18.6718 35.8594 18.5937C37.2656 18.4375 38.6719 19.0625 39.6875 19.9218C40.7031 20.8593 41.4844 21.9531 41.875 23.3593C42.1875 24.6875 42.1094 26.0937 41.7969 27.4218C41.6406 28.0468 41.4062 28.6718 41.0937 29.2968L40.9375 29.5312L40.8594 29.6093V29.6875L40.7031 29.8437C40.5469 30 40.3906 30.0781 40.2344 30.1562L39.2969 30.625C37.9687 31.0937 36.6406 31.0937 35.3906 30.9375C34.1406 30.7031 32.8906 30.3906 31.7187 29.8437C32.9687 30.0781 34.2188 30.3125 35.4688 30.3906C36.7188 30.3906 37.9688 30.2343 38.9844 29.7656C39.2188 29.6875 39.5312 29.5312 39.6875 29.375C39.7656 29.2968 39.9219 29.2187 40 29.1406L40.0781 29.0625L40.1563 28.9062C40.3906 28.3593 40.5469 27.8125 40.7031 27.1875C40.9375 26.0156 41.0156 24.8437 40.7031 23.75C40.3906 22.6562 39.7656 21.6406 38.9062 20.8593C38.0469 20.0781 37.0313 19.6093 35.8594 19.6093C35.5469 19.6093 35.3125 19.6875 35 19.6875C34.6875 19.7656 34.4531 19.8437 34.1406 19.9218C33.5938 20.1562 33.125 20.4687 32.6562 20.8593C31.875 21.7187 31.3281 22.8906 31.0156 24.0625Z" fill="#B2B6B8"/>
<path d="M34.375 28.9062C36.1009 28.9062 37.5 27.3323 37.5 25.3906C37.5 23.449 36.1009 21.875 34.375 21.875C32.6491 21.875 31.25 23.449 31.25 25.3906C31.25 27.3323 32.6491 28.9062 34.375 28.9062Z" fill="#4C5359"/>
<path d="M15.625 28.9062C17.3509 28.9062 18.75 27.3323 18.75 25.3906C18.75 23.449 17.3509 21.875 15.625 21.875C13.8991 21.875 12.5 23.449 12.5 25.3906C12.5 27.3323 13.8991 28.9062 15.625 28.9062Z" fill="#4C5359"/>
<path d="M35.1562 36.4844C35.1562 36.0156 34.8437 35.3906 34.0625 35.2344C32.0312 34.7656 28.9062 34.375 25 34.375C21.0938 34.375 17.9687 34.7656 15.9375 35.1562C15.1562 35.3125 14.8438 35.9375 14.8438 36.4062C14.8438 40.8594 18.2031 45.3125 25 45.3125C31.7969 45.3125 35.1562 40.8594 35.1562 36.4844Z" fill="#4C5359"/>
<path d="M19.9219 42.6562C21.4062 43.3594 23.0469 43.75 25 43.75C26.9531 43.75 28.5938 43.3594 30.0781 42.6562C28.6719 41.875 26.9531 41.4062 25 41.4062C23.0469 41.4062 21.3281 41.875 19.9219 42.6562Z" fill="#FF717F"/>
</svg>
