<svg width="50" height="50" viewBox="0 0 50 50" fill="none" xmlns="http://www.w3.org/2000/svg">
<path d="M20.8333 37.5V45.8333C20.8333 45.8333 20.8333 50 25 50C29.1666 50 29.1666 45.8333 29.1666 45.8333V37.5H20.8333Z" fill="#DD2E44"/>
<path d="M20.8333 45.8333L20.8347 45.8847C22.2805 45.8361 23.6347 45.5042 24.4903 44.0986C24.5424 44.0096 24.617 43.9358 24.7065 43.8845C24.7961 43.8332 24.8975 43.8062 25.0007 43.8062C25.1039 43.8062 25.2053 43.8332 25.2948 43.8845C25.3843 43.9358 25.4589 44.0096 25.5111 44.0986C26.3666 45.5028 27.7208 45.8361 29.1666 45.8847V37.5H20.8333V45.8333Z" fill="#BE1931"/>
<path d="M44.3805 30.0264C44.3805 38.7431 37.4361 38.7431 37.4361 38.7431H12.4361C12.4361 38.7431 5.49164 38.7431 5.49164 30.0264C5.49164 20.6875 12.4361 4.16669 24.9361 4.16669C37.4361 4.16669 44.3805 22.0764 44.3805 30.0264Z" fill="#D99E82"/>
<path d="M25 27.7778C15.2778 27.7778 11.1111 32.6764 11.1111 36.6597C11.1111 38.6857 11.9159 40.6287 13.3485 42.0612C14.781 43.4938 16.724 44.2986 18.75 44.2986C20.9791 44.2986 22.975 43.3764 24.3736 40.4555C24.4283 40.3355 24.5163 40.2337 24.6273 40.1623C24.7382 40.0909 24.8673 40.0529 24.9993 40.0529C25.1312 40.0529 25.2604 40.0909 25.3713 40.1623C25.4822 40.2337 25.5703 40.3355 25.625 40.4555C27.0236 43.3764 29.0208 44.2986 31.2486 44.2986C33.2745 44.2986 35.2175 43.4938 36.6501 42.0612C38.0827 40.6287 38.8875 38.6857 38.8875 36.6597C38.8889 32.6764 34.7222 27.7778 25 27.7778Z" fill="#F4C7B5"/>
<path d="M20.8333 31.7986C19.4444 33.1875 23.6111 37.3542 25 37.3542C26.3889 37.3542 30.5555 33.1875 29.1667 31.7986C27.7778 30.4097 22.2222 30.4097 20.8333 31.7986ZM18.0555 26.3889C16.5278 26.3889 15.2778 25.1389 15.2778 23.6111V20.8333C15.2778 19.3055 16.5278 18.0555 18.0555 18.0555C19.5833 18.0555 20.8333 19.3055 20.8333 20.8333V23.6111C20.8333 25.1389 19.5833 26.3889 18.0555 26.3889ZM31.9444 26.3889C30.4167 26.3889 29.1667 25.1389 29.1667 23.6111V20.8333C29.1667 19.3055 30.4167 18.0555 31.9444 18.0555C33.4722 18.0555 34.7222 19.3055 34.7222 20.8333V23.6111C34.7222 25.1389 33.4722 26.3889 31.9444 26.3889Z" fill="#292F33"/>
<path d="M20.8333 5.01112C19.3625 3.05418 16.2236 1.22362 3.92778 5.83334C-1.82778 7.99168 0.983332 24.7278 5.46528 25.8125C7.00139 25.8125 11.6125 25.8125 11.6125 13.5181C11.6125 13.2125 11.6097 12.9306 11.6056 12.65C14.375 8.74723 17.3611 6.74584 20.8333 5.01112ZM46.0722 5.83334C33.7764 1.22362 30.6375 3.05418 29.1667 5.01112C32.6389 6.74723 35.625 8.74862 38.3944 12.6514C38.3903 12.9306 38.3875 13.2125 38.3875 13.5195C38.3875 25.8139 42.9972 25.8139 44.5347 25.8139C49.0167 24.7278 51.8278 7.99168 46.0722 5.83334Z" fill="#662113"/>
<path d="M32.6389 36.1111C33.0224 36.1111 33.3333 35.8002 33.3333 35.4167C33.3333 35.0331 33.0224 34.7222 32.6389 34.7222C32.2554 34.7222 31.9445 35.0331 31.9445 35.4167C31.9445 35.8002 32.2554 36.1111 32.6389 36.1111Z" fill="#D99E82"/>
<path d="M15.9722 36.1111C16.3557 36.1111 16.6667 35.8002 16.6667 35.4167C16.6667 35.0331 16.3557 34.7222 15.9722 34.7222C15.5887 34.7222 15.2778 35.0331 15.2778 35.4167C15.2778 35.8002 15.5887 36.1111 15.9722 36.1111Z" fill="#D99E82"/>
<path d="M35.4167 38.8889C35.8002 38.8889 36.1111 38.578 36.1111 38.1944C36.1111 37.8109 35.8002 37.5 35.4167 37.5C35.0331 37.5 34.7222 37.8109 34.7222 38.1944C34.7222 38.578 35.0331 38.8889 35.4167 38.8889Z" fill="#D99E82"/>
<path d="M14.5834 38.8889C14.9669 38.8889 15.2778 38.578 15.2778 38.1944C15.2778 37.8109 14.9669 37.5 14.5834 37.5C14.1998 37.5 13.8889 37.8109 13.8889 38.1944C13.8889 38.578 14.1998 38.8889 14.5834 38.8889Z" fill="#D99E82"/>
<path d="M31.9444 40.2778C32.7115 40.2778 33.3333 39.656 33.3333 38.8889C33.3333 38.1218 32.7115 37.5 31.9444 37.5C31.1774 37.5 30.5555 38.1218 30.5555 38.8889C30.5555 39.656 31.1774 40.2778 31.9444 40.2778Z" fill="#D99E82"/>
<path d="M18.0556 40.2778C18.8226 40.2778 19.4445 39.656 19.4445 38.8889C19.4445 38.1218 18.8226 37.5 18.0556 37.5C17.2885 37.5 16.6667 38.1218 16.6667 38.8889C16.6667 39.656 17.2885 40.2778 18.0556 40.2778Z" fill="#D99E82"/>
<path d="M13.7264 10.0444C13.3666 9.10971 12.8458 8.10415 12.093 7.35138C11.9641 7.22243 11.811 7.12014 11.6425 7.05035C11.474 6.98056 11.2935 6.94464 11.1111 6.94464C10.9287 6.94464 10.7481 6.98056 10.5797 7.05035C10.4112 7.12014 10.2581 7.22243 10.1291 7.35138C10.0002 7.48033 9.89791 7.63341 9.82812 7.8019C9.75833 7.97038 9.72241 8.15096 9.72241 8.33332C9.72241 8.51568 9.75833 8.69626 9.82812 8.86474C9.89791 9.03323 10.0002 9.18631 10.1291 9.31526C10.9208 10.1069 11.6097 12.0014 11.6125 12.5736C11.8139 12.0125 12.7778 10.9764 13.7264 10.0444ZM36.25 10.0444C36.6097 9.1111 37.1305 8.10415 37.8833 7.35138C38.0123 7.22243 38.1653 7.12014 38.3338 7.05035C38.5023 6.98056 38.6829 6.94464 38.8653 6.94464C39.0476 6.94464 39.2282 6.98056 39.3967 7.05035C39.5652 7.12014 39.7183 7.22243 39.8472 7.35138C39.9762 7.48033 40.0784 7.63341 40.1482 7.8019C40.218 7.97038 40.2539 8.15096 40.2539 8.33332C40.2539 8.51568 40.218 8.69626 40.1482 8.86474C40.0784 9.03323 39.9762 9.18631 39.8472 9.31526C39.0555 10.1069 38.3666 12.0014 38.3639 12.5736C38.1625 12.0125 37.1986 10.9764 36.25 10.0444Z" fill="#380F09"/>
</svg>
